<?xml version="1.0" encoding="UTF-8" standalone="no"?>
<!-- Created with Inkscape (http://www.inkscape.org/) -->

<svg
   xmlns:dc="http://purl.org/dc/elements/1.1/"
   xmlns:cc="http://creativecommons.org/ns#"
   xmlns:rdf="http://www.w3.org/1999/02/22-rdf-syntax-ns#"
   xmlns:svg="http://www.w3.org/2000/svg"
   xmlns="http://www.w3.org/2000/svg"
   xmlns:sodipodi="http://sodipodi.sourceforge.net/DTD/sodipodi-0.dtd"
   xmlns:inkscape="http://www.inkscape.org/namespaces/inkscape"
   width="1109.2885"
   height="379.6937"
   id="svg2"
   version="1.1"
   inkscape:version="0.91 r13725"
   sodipodi:docname="sdkman.svg">
  <defs
     id="defs4">
    <clipPath
       clipPathUnits="userSpaceOnUse"
       id="clipPath4360">
      <path
         d="m 501.03604,994.97535 c 5.82867,10e-5 10.89846,0.85013 15.2094,2.55007 4.31075,1.63945 7.86263,4.03778 10.65568,7.19488 2.85356,3.1573 4.97863,7.0432 6.37521,11.6575 1.39635,4.5538 2.0946,9.745 2.0947,15.5737 l 0,63.752 -37.06723,0 0,-59.2894 c -8e-5,-4.1286 -1.0626,-7.4983 -3.18759,-10.1092 -2.06443,-2.6107 -5.1913,-3.9161 -9.38065,-3.9162 -2.30728,10e-5 -4.43235,0.4251 -6.37519,1.275 -1.88228,0.7894 -3.5216,1.9127 -4.91802,3.3698 -1.33582,1.3965 -2.36799,3.0359 -3.09653,4.918 -0.72863,1.8823 -1.09294,3.8555 -1.09289,5.9198 l 0,57.8322 -37.06723,0 0,-98.4513 30.4188,0 2.36795,14.8451 c 1.88215,-2.6107 4.12864,-4.9483 6.73949,-7.0127 2.61075,-2.125 5.43405,-3.9161 8.46991,-5.37339 3.03574,-1.5178 6.22334,-2.67141 9.5628,-3.46082 3.40003,-0.84992 6.83049,-1.27494 10.29139,-1.27504"
         style="font-size:192.30012512px;font-style:normal;font-variant:normal;font-weight:normal;font-stretch:normal;line-height:125%;letter-spacing:0px;word-spacing:0px;fill:#000000;fill-opacity:1;stroke:#000000;stroke-opacity:1;font-family:Archivo Black;-inkscape-font-specification:Archivo Black"
         id="path4362"
         inkscape:connector-curvature="0" />
    </clipPath>
  </defs>
  <sodipodi:namedview
     id="base"
     pagecolor="#ffffff"
     bordercolor="#666666"
     borderopacity="1.0"
     inkscape:pageopacity="0.0"
     inkscape:pageshadow="2"
     inkscape:zoom="0.7"
     inkscape:cx="640.25333"
     inkscape:cy="116.70414"
     inkscape:document-units="px"
     inkscape:current-layer="layer2"
     showgrid="false"
     inkscape:window-width="1920"
     inkscape:window-height="1014"
     inkscape:window-x="0"
     inkscape:window-y="27"
     inkscape:window-maximized="1"
     showguides="true"
     inkscape:guide-bbox="true"
     fit-margin-top="0"
     fit-margin-left="0"
     fit-margin-right="0"
     fit-margin-bottom="0" />
  <metadata
     id="metadata7">
    <rdf:RDF>
      <cc:Work
         rdf:about="">
        <dc:format>image/svg+xml</dc:format>
        <dc:type
           rdf:resource="http://purl.org/dc/dcmitype/StillImage" />
        <dc:title></dc:title>
      </cc:Work>
    </rdf:RDF>
  </metadata>
  <g
     inkscape:label="Layer 1"
     inkscape:groupmode="layer"
     id="layer1"
     style="display:inline"
     transform="translate(84.808907,-126.48542)" />
  <g
     inkscape:groupmode="layer"
     id="layer3"
     inkscape:label="Leaf"
     style="display:inline"
     transform="translate(84.808907,-126.48542)" />
  <g
     inkscape:groupmode="layer"
     id="layer2"
     inkscape:label="env"
     style="display:inline"
     transform="translate(84.808907,-126.48542)">
    <g
       id="g3381">
      <g
         id="g4415">
        <path
           inkscape:connector-curvature="0"
           id="path3765-5-1"
           style="font-style:normal;font-variant:normal;font-weight:bold;font-stretch:normal;font-size:96px;line-height:125%;font-family:'Archivo Black';-inkscape-font-specification:'Archivo Black';letter-spacing:0px;word-spacing:0px;fill:#ffffff;fill-opacity:1;stroke:#000000;stroke-width:3.99999976;stroke-miterlimit:4;stroke-dasharray:none;stroke-opacity:1"
           d="m 85.847178,128.46891 c 21.803432,3.8e-4 42.319442,2.23224 61.548082,6.69561 19.39982,4.29243 36.31049,11.07385 50.73209,20.34435 14.59268,9.0995 26.18122,20.68803 34.76566,34.76564 8.58377,14.07825 13.04749,30.81725 13.39121,50.21707 l 0,6.18054 -109.18989,0 0,-2.06018 c -2.4e-4,-4.80683 -0.85866,-9.35642 -2.57523,-13.64873 -1.71707,-4.46346 -4.46398,-8.41215 -8.24075,-11.84608 -3.77725,-3.43336 -8.67019,-6.18027 -14.67883,-8.24074 -5.83742,-2.05989 -12.962213,-3.08999 -21.374435,-3.09029 -16.13832,3e-4 -28.241904,2.40385 -36.310808,7.21067 -7.897538,4.63568 -11.846224,10.12952 -11.84606,16.48149 -1.64e-4,6.86755 3.00427,12.36138 9.013303,16.48149 6.180399,4.12062 14.249468,7.6401 24.207205,10.55845 9.957372,2.74717 21.288382,5.3224 33.993085,7.7257 12.70424,2.23211 25.66625,4.97902 38.88602,8.24076 13.39095,3.26218 26.43879,7.29671 39.14355,12.10359 12.87586,4.80731 24.37855,11.15955 34.50813,19.05674 10.1289,7.89755 18.2838,17.68343 24.46471,29.35765 6.3519,11.50287 9.69968,25.66663 10.04342,42.49135 -3.6e-4,22.49047 -4.0349,41.8047 -12.1036,57.94277 -8.0694,15.96649 -19.31458,29.10016 -33.73556,39.40107 -14.24992,10.12927 -31.16062,17.59742 -50.7321,22.40453 -19.40033,4.63541 -40.51724,6.95312 -63.35075,6.95312 -25.409147,0 -49.101266,-1.88851 -71.076429,-5.66551 -21.8037624,-3.77701 -40.774633,-10.47261 -56.912669,-20.08683 -15.966509,-9.78584 -28.499301,-23.00537 -37.59841,-39.65859 -9.099185,-16.82478 -13.64876,-38.11336 -13.648738,-63.86579 l 110.219999,0 c -1.28e-4,9.78601 1.373308,17.68338 4.120363,23.69216 2.746782,5.83728 6.609639,10.47269 11.588553,13.90626 5.150318,3.26203 11.330863,5.49391 18.541692,6.69559 7.210463,1.03017 15.279531,1.54522 24.207187,1.54515 5.321958,7e-5 10.987454,-0.17169 16.996542,-0.51505 6.00867,-0.51499 11.50249,-1.54506 16.48149,-3.09028 5.15025,-1.54506 9.35646,-3.9486 12.61865,-7.21065 3.4334,-3.26186 5.15023,-7.7256 5.15047,-13.39122 -2.4e-4,-6.52381 -3.09052,-11.76012 -9.27085,-15.70892 -6.0091,-3.94858 -14.07815,-7.29637 -24.20719,-10.04342 -9.95777,-2.91846 -21.374627,-5.57952 -34.250604,-7.98322 -12.876342,-2.40341 -26.010008,-5.322 -39.401071,-8.7558 C 16.744954,350.62587 3.6971213,346.33383 -9.1789359,341.1832 -22.055187,335.86123 -33.557886,328.99394 -43.687065,320.58133 c -9.957625,-8.41224 -18.026678,-18.71317 -24.207195,-30.9028 -6.008912,-12.36089 -9.013352,-27.38308 -9.013319,-45.06659 -3.3e-5,-21.11663 4.463706,-39.0574 13.391215,-53.82238 8.927422,-14.76433 20.859326,-26.69624 35.795746,-35.79574 14.936261,-9.2705 32.1903089,-15.96609 51.762194,-20.08682 19.743304,-4.2917 40.345159,-6.43771 61.805602,-6.43809" />
        <path
           inkscape:connector-curvature="0"
           id="path3767-7-9"
           style="font-style:normal;font-variant:normal;font-weight:bold;font-stretch:normal;font-size:96px;line-height:125%;font-family:'Archivo Black';-inkscape-font-specification:'Archivo Black';letter-spacing:0px;word-spacing:0px;fill:#ffffff;fill-opacity:1;stroke:#000000;stroke-width:3.99999976;stroke-miterlimit:4;stroke-dasharray:none;stroke-opacity:1"
           d="m 425.14926,134.907 c 30.90258,3.6e-4 58.20005,3.69153 81.89242,11.0735 23.69186,7.21099 43.52114,18.2845 59.48791,33.22051 16.13781,14.93667 28.32719,33.8217 36.56832,56.65514 8.24036,22.66229 12.36074,49.44469 12.36113,80.34729 -3.9e-4,31.07464 -4.12077,58.02872 -12.36113,80.86233 -8.24113,22.66214 -20.43051,41.46132 -36.56832,56.39761 -15.96677,14.9364 -35.79605,26.09573 -59.48791,33.47803 -23.69237,7.21067 -50.98984,10.81598 -81.89242,10.81598 l -157.08928,0 0,-362.85039 157.08928,0 m -40.6887,87.04289 0,188.76461 38.62851,0 c 12.70432,9e-5 23.69198,-1.71672 32.96299,-5.15046 9.27062,-3.60523 16.82464,-8.75569 22.66205,-15.45139 6.00865,-6.86719 10.38652,-15.10791 13.13372,-24.72226 2.91832,-9.78573 4.37765,-20.85923 4.37787,-33.22051 l 0,-31.67537 c -2.2e-4,-12.36091 -1.45955,-23.34855 -4.37787,-32.96299 -2.7472,-9.78564 -7.12507,-18.02638 -13.13372,-24.72223 -5.83741,-6.86704 -13.39143,-12.0175 -22.66205,-15.45141 -9.27101,-3.60504 -20.25867,-5.4077 -32.96299,-5.40799 l -38.62851,0" />
        <path
           inkscape:connector-curvature="0"
           id="path3769-7-2"
           style="font-style:normal;font-variant:normal;font-weight:bold;font-stretch:normal;font-size:96px;line-height:125%;font-family:'Archivo Black';-inkscape-font-specification:'Archivo Black';letter-spacing:0px;word-spacing:0px;fill:#ffffff;fill-opacity:1;stroke:#000000;stroke-width:3.99999976;stroke-miterlimit:4;stroke-dasharray:none;stroke-opacity:1"
           d="M 743.55003,289.93605 872.82675,134.907 l 144.47065,0 -130.30685,149.36354 132.88205,213.48685 -137.51746,0 -75.45437,-132.88203 -63.35074,51.76218 0,81.11985 -116.40056,0 0,-362.85039 116.40056,0 0,155.02905" />
      </g>
      <g
         id="g3376">
        <path
           style="display:inline;fill:#003388;fill-opacity:1;stroke:#001133;stroke-width:2;stroke-linecap:round;stroke-linejoin:round;stroke-miterlimit:4;stroke-dasharray:none;stroke-opacity:1"
           d="m 723.75797,142.04085 c 0,0 36.68907,70.77949 15.88678,95.42329 -12.31701,14.59155 -57.29613,0.23325 -57.29613,0.23325 l 81.25117,84.94011 -85.89176,-27.71955 c 0,0 27.65173,32.77851 21.44444,49.72954 -8.73355,23.84972 -68.2292,33.95932 -68.2292,33.95932 0,0 59.5405,9.71262 68.4549,33.4941 6.30496,16.82013 -20.92074,49.66286 -20.92074,49.66286 0,0 61.8713,-46.06884 87.80811,-29.34881 15.41235,9.93549 5.63582,54.70924 5.63582,54.70924 0,0 35.07595,-38.76291 55.79066,-54.45721 13.66034,-10.34961 44.53218,-25.70143 44.53218,-25.70143 l 47.80138,82.76642 6.95772,-4.01588 -47.67718,-82.83812 c 0,0 28.83369,-19.09942 44.67584,-25.78437 24.09429,-10.16778 75.50507,-21.32067 75.50507,-21.32067 0,0 -43.44528,-13.78788 -44.34936,-31.98883 -1.53052,-30.8121 69.34253,-61.32235 69.34253,-61.32235 0,0 -42.09659,7.1813 -53.52823,-6.69433 -16.15073,-19.60363 5.21087,-76.01061 5.21087,-76.01061 0,0 -38.49117,46.46441 -63.52167,42.11024 -17.79084,-3.0948 -32.38121,-43.41734 -32.38121,-43.41734 L 860.54868,267.17646 827.35254,155.1098 c 0,0 -10.42846,45.69242 -29.13306,48.89623 -31.83111,5.45217 -74.46121,-61.96459 -74.46121,-61.96459 z"
           id="path2985-3"
           inkscape:connector-curvature="0"
           sodipodi:nodetypes="cscccscscscsccccscscscscccsc"
           clip-path="none" />
        <text
           xml:space="preserve"
           style="font-style:normal;font-variant:normal;font-weight:normal;font-stretch:normal;font-size:51.64508438px;line-height:125%;font-family:'Black Ops One';-inkscape-font-specification:'Black Ops One';letter-spacing:0px;word-spacing:0px;fill:#ffffff;fill-opacity:1;stroke:#000000;stroke-width:2;stroke-miterlimit:4;stroke-dasharray:none;stroke-opacity:1"
           x="420.33511"
           y="732.38385"
           id="text2989-5-7"
           sodipodi:linespacing="125%"
           transform="matrix(0.86617571,-0.49991325,0.50008677,0.86587512,0,0)"><tspan
             sodipodi:role="line"
             id="tspan2991-2-9"
             x="420.33511"
             y="732.38385"
             style="font-style:normal;font-variant:normal;font-weight:normal;font-stretch:normal;font-size:116.31179047px;font-family:'Archivo Black';-inkscape-font-specification:'Archivo Black';fill:#ffffff;fill-opacity:1;stroke:#000000;stroke-width:2;stroke-miterlimit:4;stroke-dasharray:none;stroke-opacity:1">man</tspan></text>
      </g>
    </g>
  </g>
</svg>
